<?xml version="1.0" encoding="utf-8"?>
<!-- Generator: Adobe Illustrator 27.1.1, SVG Export Plug-In . SVG Version: 6.00 Build 0)  -->
<svg version="1.1" id="Layer_1" xmlns="http://www.w3.org/2000/svg" xmlns:xlink="http://www.w3.org/1999/xlink" x="0px" y="0px"
	 viewBox="0 0 841.89 595.28" style="enable-background:new 0 0 841.89 595.28;" xml:space="preserve">
<style type="text/css">
	.st0{fill:#52815C;}
	.st1{fill:#ECE0D1;}
	.st2{fill:#84A085;}
	.st3{fill:#839F84;}
	.st4{fill:#BFCABC;}
	.st5{fill:#B8C5B5;}
	.st6{fill:#C3996B;}
	.st7{fill:#05683A;}
	.st8{fill:#DDC6AA;}
	.st9{fill:#EADCCB;}
	.st10{fill:#50805A;}
	.st11{fill:#ECDFD1;}
	.st12{fill:#B9C6B7;}
	.st13{fill:#BBC7B8;}
	.st14{fill:#DCC3A6;}
	.st15{fill:#BAC7B8;}
	.st16{fill:#ECDFD0;}
	.st17{fill:#BCC8BA;}
	.st18{fill:#E3D4C5;}
	.st19{fill:#85A186;}
	.st20{fill:#51815B;}
	.st21{fill:#D1B08A;}
	.st22{fill:#DDC5A9;}
	.st23{fill:#D2B18C;}
	.st24{fill:#D5B896;}
	.st25{fill:#D6B997;}
	.st26{fill:#E5D3BE;}
	.st27{fill:#53825C;}
	.st28{fill:#E9D9C8;}
	.st29{fill:#819E82;}
	.st30{fill:#7F9D81;}
	.st31{fill:#6B906F;}
	.st32{fill:#D1AF89;}
	.st33{fill:#EBDDCD;}
	.st34{fill:#86A287;}
	.st35{fill:#EDE1D2;}
	.st36{fill:#CFAD86;}
	.st37{fill:#DEC7AC;}
	.st38{fill:#D7BA99;}
	.st39{fill:#E4D2BC;}
	.st40{fill:#4F8059;}
	.st41{fill:#E5D2BD;}
	.st42{fill:#E7D7C4;}
	.st43{fill:#BDC9BA;}
	.st44{fill:#E6D4C0;}
	.st45{fill:#E1CBB3;}
	.st46{fill:#D8BD9D;}
	.st47{fill:#CFAC85;}
	.st48{fill:#D8BC9C;}
	.st49{fill:#D9BE9E;}
	.st50{fill:#56835F;}
	.st51{fill:#BFCBBD;}
	.st52{fill:#E5D4BF;}
	.st53{fill:#E2CEB7;}
	.st54{fill:#4C7E57;}
	.st55{fill:#DFC8AE;}
	.st56{fill:#D6BA99;}
	.st57{fill:#E3D0B9;}
	.st58{fill:#C0CBBD;}
	.st59{fill:#04693A;}
	.st60{fill:#C2986B;}
</style>
<g>
	<path class="st0" d="M352.06,178.14c1.44,0,2.88,0,4.32,0c0.07,0.15,0.04,0.28-0.1,0.37c-1.37,0.34-2.74,0.34-4.11,0
		C352.02,178.42,351.99,178.3,352.06,178.14z"/>
	<path class="st1" d="M238.39,291.76c0.07-0.01,0.14-0.01,0.21-0.01c0.63,1.37,0.66,2.73-0.01,4.1l-0.1,0l-0.1-0.02
		C238.39,294.48,238.39,293.12,238.39,291.76z"/>
	<path class="st2" d="M352.06,178.14c0.01,0.08,0.01,0.15-0.01,0.23c-0.65,0.51-1.34,0.41-2.05,0.14c-0.14-0.1-0.17-0.22-0.09-0.37
		C350.62,178.14,351.34,178.14,352.06,178.14z"/>
	<path class="st3" d="M356.4,178.35c-0.01-0.07-0.02-0.14-0.02-0.21c0.72,0,1.44,0,2.16,0c0.07,0.15,0.04,0.27-0.1,0.37
		C357.73,178.77,357.04,178.88,356.4,178.35z"/>
	<path class="st4" d="M349.9,178.14c0,0.07,0,0.14-0.02,0.21c-0.48,0.43-0.95,0.43-1.43,0c0.02-0.07,0.03-0.14,0.01-0.21
		C348.94,178.14,349.42,178.14,349.9,178.14z"/>
	<path class="st5" d="M358.55,178.34c0-0.07-0.01-0.13-0.02-0.2c0.48,0,0.96,0,1.44,0c0.01,0.07,0.02,0.13,0.02,0.2
		C359.51,178.78,359.03,178.78,358.55,178.34z"/>
	<path class="st6" d="M371.42,408.06c0.08,0.63-0.55,0.12-0.67,0.43c-0.94,0.1-1.89,0.19-2.83,0.29c-0.39,0.2-0.85-0.05-1.23,0.18
		c-0.39,0.07-0.79,0.14-1.18,0.22c-0.41-0.12-0.81-0.13-1.22,0.01c-0.55,0.08-1.11,0.15-1.66,0.23c-0.65-0.11-1.29-0.14-1.93,0.02
		c-0.4,0.02-0.79,0.04-1.19,0.07c-0.58,0.16-1.18,0.04-1.77,0.07c-2.34,0-4.67,0-7.01,0c-0.59-0.04-1.19,0.09-1.78-0.09
		c-0.71-0.02-1.43-0.03-2.14-0.05c-0.54-0.27-1.16,0.05-1.7-0.2c-0.47-0.01-0.94-0.03-1.41-0.04c-0.38-0.24-0.84,0.03-1.22-0.2
		c-3.2-0.14-6.34-0.74-9.49-1.3c-5.15-0.91-10.21-2.23-15.17-3.89c-4.18-1.39-8.29-3-12.27-4.91c-6.04-2.9-11.89-6.13-17.37-10.01
		c-3.32-2.35-6.52-4.84-9.62-7.49c-2.79-2.39-5.47-4.88-7.98-7.55c-4.07-4.34-7.84-8.93-11.25-13.81
		c-3.61-5.17-6.78-10.59-9.51-16.26c-2.98-6.2-5.41-12.62-7.2-19.26c-1.33-4.94-2.43-9.94-3.01-15.03c-0.2-1.75-0.44-3.5-0.67-5.26
		c0.11-0.57,0.15-1.13-0.02-1.69c0.06-0.55-0.53-1.09-0.05-1.66c-0.18-0.37-0.06-0.76-0.09-1.14c-0.04-0.5,0.08-1.01-0.08-1.51
		c-0.03-0.79-0.06-1.59-0.09-2.38c0-1.37,0.01-2.73,0.01-4.1c0.02-0.72,0.05-1.43,0.07-2.15c0.16-0.5,0.04-1.01,0.08-1.51
		c0.03-0.38-0.08-0.77,0.09-1.14c-0.48-0.57,0.11-1.1,0.05-1.66c0.17-0.56,0.13-1.13,0.02-1.7c0.07-0.39,0.15-0.79,0.22-1.18
		c0.23-0.38-0.04-0.84,0.19-1.22c-0.17-1.86,0.26-3.67,0.56-5.47c0.62-3.75,1.38-7.48,2.36-11.16c1.64-6.18,3.72-12.19,6.4-18
		c0.5-1.08,1-2.15,1.5-3.23c0.08-0.12,0.15-0.12,0.22,0.01c3.88,2.02,7.96,3.54,12.15,4.75c3.55,1.02,7.16,1.82,10.88,1.98
		c0.45,0.19,0.92,0.05,1.39,0.09c0.96,0.09,1.94-0.19,2.88,0.16c1.17,3.3,2.8,6.4,4.47,9.45c2.68,4.88,5.76,9.52,9.18,13.92
		c2.58,3.31,5.34,6.46,8.15,9.58c1.95,2.16,4.19,4,6.32,6.22c-1.14,0.48-2.24,0.57-3.34,0.62c-0.47,0.21-1-0.06-1.48,0.18
		c-0.4,0.02-0.79,0.04-1.19,0.07c-0.96,0.13-1.92,0.13-2.88,0c-0.63-0.02-1.27-0.04-1.9-0.06c-0.38-0.24-0.84,0.02-1.22-0.19
		c-4.34-0.4-8.49-1.57-12.49-3.28c-0.97-0.41-1.93-0.85-3.1-1.37c0.54,1.26,1.48,1.95,2.29,2.67c4.51,3.99,9.82,6.45,15.62,7.93
		c2.47,0.63,4.99,1.01,7.5,1.4c0.49-0.11,0.97-0.13,1.46,0.01c0.5-0.07,0.9,0.4,1.41,0.24c0.5-0.17,1.02-0.05,1.52-0.09
		c1.76,0,3.52,0,5.28,0c0.7-0.05,1.4,0.1,2.09-0.09c1.58-0.21,2.91,0.6,4.31,1.08c5.42,1.85,10.92,3.39,16.5,4.66
		c3.6,0.82,7.24,1.37,10.86,2.09c1.81,0.36,3.66,0.48,5.49,0.72c0.49-0.1,0.97-0.14,1.46,0.02c2.3,0.44,4.62,0.49,6.95,0.53
		c0.51,0.19,1.05,0.05,1.57,0.09c0.69,0,1.38,0,2.08,0c1,0,2.01,0,3.01,0c0.5,0.05,1.01-0.1,1.5,0.1c3.38,1.06,6.75,2.17,9.87,3.88
		c4.74,2.59,8.76,5.93,11.09,10.96c0.85,1.84,1.26,3.79,1.61,5.76c0.21,0.48-0.05,1,0.17,1.48c0.1,5.09,0.95,12.59,0.06,18.04
		c-0.01,6.75,2.97,11.94-14.2,23.62c0,0-17.08,4.88-18.2,19.21C359,396.06,359.49,402.77,371.42,408.06"/>
	<path class="st7" d="M468.82,288.62c-0.79,0-1.58-0.01-2.37-0.01c-1.76-0.14-3.52-0.12-5.28-0.01c-2.4,0-4.79,0-7.19,0.01
		c-0.8-0.18-1.62-0.03-2.43-0.08c-0.55,0-1.1,0-1.65,0c-0.48-0.04-0.97,0.08-1.45-0.08c-3.32,0.05-6.62-0.35-9.9-0.78
		c-4.97-0.65-9.9-1.56-14.41-3.86c-3.76-1.92-6.5-4.96-8.54-8.64c-1.44-2.59-2.36-5.33-2.43-8.32c-0.13-1.05-0.13-2.09,0-3.14
		c0.28-5.51,2.54-10.32,5.3-14.95c2.05-3.45,4.75-6.41,7.15-9.59c4.14-5.47,7.39-11.42,8.7-18.27c0.35-1.85,0.71-3.69,0.72-5.57
		c0.17-1.22,0.17-2.43,0-3.65c0.45-0.57,0.61,0.09,0.76,0.25c2.85,2.76,5.52,5.68,8.08,8.72c3.21,3.82,6.18,7.8,8.84,12
		c3.1,4.89,5.72,10.03,8.02,15.36c2.31,5.36,4.04,10.89,5.36,16.55c0.79,3.4,1.4,6.85,1.8,10.34c0.29,2.5,0.62,4.99,0.71,7.5
		c0.23,0.38-0.03,0.84,0.19,1.23c0.03,0.39,0.05,0.79,0.08,1.18c0.14,0.49,0.04,0.99,0.07,1.49
		C468.88,287.06,469.13,287.86,468.82,288.62z"/>
	<path class="st7" d="M291.59,243.33c0-0.95,0.01-1.91,0.01-2.86c-0.2-0.92-0.04-1.85-0.09-2.77c0-0.55,0-1.09,0-1.64
		c-0.04-0.45,0.09-0.91-0.09-1.35c0.12-0.58-0.4-1.07-0.22-1.66c0.11-0.57,0.14-1.13-0.02-1.7c-0.33-2.75-0.56-5.53-1.02-8.26
		c-0.65-3.82-1.4-7.62-2.46-11.35c-0.89-3.13-1.83-6.24-3.18-9.22c-0.21-0.46-0.27-0.81,0.35-1.27c3.09-2.31,6.28-4.44,9.56-6.45
		c0.57-0.35,0.79-0.28,1.15,0.13c1.93,2.17,3.74,4.45,5.38,6.84c3.87,5.64,6.99,11.65,8.96,18.24c0.89,2.99,1.56,6.01,1.89,9.12
		c0.08,0.74,0.22,1.47,0.24,2.22c0.12,0.48,0.19,0.96-0.05,1.43c-2.38,0.3-4.01-1.13-5.54-2.57c-3.95-3.73-6.79-8.3-9.52-12.93
		c-1.5-2.53-2.86-5.15-4.34-7.84c-0.57,0.94-0.06,1.8,0.05,2.55c1.29,8.15,3.78,15.87,8.95,22.47c2.47,3.15,5.46,5.74,9.13,7.47
		c0.42,0.2,0.59,0.6,0.8,0.94c2.46,3.85,5.09,7.57,8.31,10.83c3.55,3.59,7.64,6.44,12.12,8.73c5.11,2.61,9.95,5.59,14.34,9.31
		c4.96,4.22,9.2,8.98,12.04,14.9c0.62,1.28,0.61,1.24-0.77,1.33c-1.36,0.09-2.71,0.28-4.06,0.42c-0.4-0.12-0.81-0.13-1.21,0.01
		c-0.71,0.03-1.43,0.05-2.14,0.08c-0.4,0.13-0.81,0.13-1.21,0c-6.45,0.1-12.66-1.15-18.69-3.38c-5.5-2.04-10.53-4.89-15.25-8.38
		c-3.91-2.89-7.39-6.24-10.64-9.8c-3.85-4.22-7.25-8.82-10.09-13.81c-0.92-1.62-1.96-3.17-2.66-4.91c-0.19-0.65-0.04-1.31-0.09-1.96
		C291.56,245.24,291.42,244.28,291.59,243.33z"/>
	<path class="st6" d="M369.11,267.33c-0.11,1.09-0.22,2.18-0.35,3.38c-0.68-0.28-1.01-0.8-1.42-1.19
		c-6.66-6.3-13.63-12.18-21.73-16.6c-2.79-1.52-5.77-2.44-8.78-3.37c-4.72-1.47-8.89-3.94-12.22-7.65c-1.51-1.68-2.8-3.55-3.56-5.7
		c-0.26-0.73-0.34-1.53-0.4-2.31c-0.39-5.45-1.59-10.73-3.33-15.9c-1.86-5.53-4.5-10.66-8.18-15.19c-2.96-3.65-6.32-6.91-10.41-9.34
		c-0.23-0.14-0.41-0.36-0.66-0.6c1.49-1.18,3.22-1.83,4.82-2.65c3.09-1.58,6.29-2.93,9.51-4.24c0.99-0.4,1.43-0.42,1.82,0.77
		c2.65,8.09,6.29,15.72,11.27,22.64c3.11,4.32,6.69,8.24,10.67,11.8c5.26,4.7,11.02,8.72,16.67,12.9
		c8.3,6.15,13.78,14.2,15.75,24.45c0.3,1.54,0.36,3.13,0.54,4.7C369.26,264.59,369.26,265.96,369.11,267.33z"/>
	<path class="st7" d="M358.55,178.34c0.48,0,0.96,0,1.43,0c4.18,0.48,8.4,0.59,12.54,1.45c0.6,0.12,1.24,0.23,1.85,0.24
		c1.07,0.03,1.04,0.64,0.89,1.36c-0.5,2.37-0.61,4.78-0.9,7.18c-0.01,0.12,0.02,0.24,0.03,0.35c0.12,0.49,0.13,0.97-0.01,1.46
		c-0.01,2.4-0.2,4.81,0,7.18c0.48,5.75,1.87,11.3,4,16.69c2.29,5.78,5.74,10.85,9.09,16.01c3.21,4.93,5.27,10.36,6.3,16.17
		c0.48,2.7,0.91,5.4,0.97,8.15c0.25,0.55-0.04,1.16,0.18,1.71c0,1.04,0,2.07,0,3.11c-0.22,0.55,0.07,1.16-0.18,1.71
		c-0.19,5.63-1.2,11.11-2.83,16.82c-0.72-1.57-0.74-2.98-1-4.31c-1.17-6.01-2.93-11.83-5.35-17.44c-2.34-5.4-5.15-10.55-8.54-15.4
		c-2.91-4.16-6.2-7.96-9.86-11.47c-0.42-0.4-0.93-0.75-1.18-1.3c0.2-0.77,0.04-1.55,0.09-2.33c-0.04-0.51,0.09-1.03-0.09-1.53
		c0.13-0.58-0.4-1.07-0.23-1.66c0.11-0.57,0.15-1.13-0.02-1.7c-0.48-1.62-0.46-3.32-0.7-4.97c-0.45-3.17-1.11-6.27-1.98-9.34
		c-1.71-6.02-4.25-11.67-7.89-16.79c-2.87-4.04-6.24-7.6-10.3-10.48c-0.15-0.11-0.26-0.28-0.49-0.54c1.44-0.12,2.75-0.23,4.06-0.34
		c0.48,0,0.95,0,1.43,0c0.72,0.01,1.44,0.01,2.16,0.02c1.45,0,2.9-0.01,4.35-0.01C357.12,178.35,357.84,178.34,358.55,178.34z"/>
	<path class="st6" d="M405.99,203.32c0.21,3.59,1.18,7.02,2.14,10.46c1.12,4.02,2.99,7.78,4.1,11.81c0.22,0.79,0.35,1.6,0.53,2.4
		c0.17,0.41,0.06,0.84,0.09,1.26c-0.05,0.71,0.11,1.42-0.1,2.12c-0.09,3.98-2.73,7.73-6.44,9.18c-0.61,0.24-0.84,0.23-1.04-0.53
		c-1.33-4.93-3.83-9.18-7.64-12.64c-1.89-1.71-3.68-3.53-5.5-5.31c-5.74-5.62-10.07-12.13-12.1-20.05c-1-3.89-1.94-7.78-2.48-11.74
		c-0.25-1.87-0.67-3.75-0.57-5.66c-0.24-0.46,0.06-1-0.2-1.46c-0.02-0.55-0.04-1.1-0.05-1.66c-0.01-0.43-0.41-1.06,0.52-1
		c3.47,0.83,6.95,1.62,10.37,2.65c5.93,1.79,11.68,4.01,17.26,6.71c1.11,0.54,1.4,1.22,1.09,2.26c-0.1,0.34-0.12,0.59,0.04,0.87
		c-0.24,0.38,0.01,0.84-0.18,1.22c-0.03,0.4-0.06,0.79-0.09,1.19c-0.16,0.57-0.04,1.15-0.08,1.73c0,0.52,0,1.04,0,1.56
		c0.04,0.58-0.09,1.17,0.08,1.74c0.02,0.55,0.04,1.11,0.06,1.66C406.02,202.48,405.76,202.94,405.99,203.32z"/>
	<path class="st7" d="M355.21,218.18c-0.36,1.83-0.43,3.69-0.93,5.51c-0.24,0.87-0.52,0.74-1.11,0.55
		c-2.94-0.94-5.68-2.31-8.33-3.84c-5.37-3.11-9.97-7.19-14.11-11.75c-4.03-4.44-7.5-9.33-10.55-14.5c-1.64-2.78-3.19-5.61-4.64-8.5
		c-0.3-0.61-0.22-0.78,0.36-0.97c5.1-1.62,10.18-3.3,15.49-4.16c2.72-0.44,5.44-0.93,8.15-1.41c0.44-0.08,0.68,0.19,0.89,0.47
		c3.68,5.05,7.07,10.29,9.68,15.98c2.14,4.66,3.74,9.51,4.58,14.58c0.25,1.54,0.36,3.11,0.54,4.66
		C355.33,215.93,355.36,217.06,355.21,218.18z"/>
	<path class="st7" d="M409.13,192.06c2.74,1.43,5.31,3,7.85,4.63c3.6,2.32,7.06,4.85,10.4,7.53c0.98,0.79,1.92,1.63,2.9,2.42
		c0.84,0.68,0.49,1.67,0.38,2.46c-0.41,3.15-0.91,6.32-2.15,9.26c-1.55,3.67-3.46,7.1-6.96,9.36c-0.68,0.44-0.93,0.48-1.34-0.26
		c-4.24-7.56-7.24-15.58-9.19-24.03c-0.75-3.26-1.27-6.55-1.89-9.83C409.06,193.14,409.13,192.65,409.13,192.06z"/>
	<path class="st6" d="M285.2,227.04c0.11,0.64-0.43,1.25-0.06,1.9c-0.25,0.38,0.03,0.84-0.2,1.22c-0.42,1.75-0.59,3.55-1.23,5.25
		c-0.56,1.5-1.23,2.92-2.44,4.03c-0.51,0.47-0.8,0.53-1.17-0.19c-2.47-4.77-5.73-8.98-9.26-13c-1.55-1.76-3-3.61-4.76-5.16
		c-0.97-0.86-0.69-1.45,0.01-2.21c1.18-1.29,2.26-2.66,3.47-3.91c3.73-3.87,7.6-7.59,11.82-10.93c0.72-0.57,0.96-0.73,1.2,0.44
		c0.82,3.96,1.52,7.94,2.06,11.95c0.11,0.81,0.09,1.65,0.29,2.46c0.24,0.47-0.06,1,0.2,1.46c-0.51,0.72,0.23,1.42,0.05,2.14
		C285.33,224,285.31,225.52,285.2,227.04z"/>
	<path class="st7" d="M251.13,241.42c2.89-6.07,6.59-11.65,10.53-17.08c0.4-0.55,0.62-0.37,1-0.01c2.7,2.47,4.75,5.44,6.67,8.51
		c1.61,2.57,3.02,5.25,4.49,7.91c0.52,0.94,0.15,1.2-0.67,1.39c-2.77,0.63-5.58,0.52-8.38,0.45c-0.47-0.18-0.97-0.04-1.45-0.09
		c-0.48,0.04-0.98-0.09-1.45,0.09c-3.33-0.31-6.66-0.61-9.99-0.93c-0.18-0.02-0.36-0.13-0.54-0.19
		C251.25,241.54,251.18,241.53,251.13,241.42z"/>
	<path class="st8" d="M350.61,409.49c2.41,0.01,4.82,0.01,7.23,0.02c0.06,0.05,0.08,0.09,0.05,0.13c-0.03,0.03-0.05,0.05-0.08,0.05
		c-2.39,0-4.78-0.01-7.17-0.01c-0.08-0.03-0.12-0.07-0.1-0.11C350.56,409.52,350.58,409.49,350.61,409.49z"/>
	<path class="st9" d="M313.44,297.75c-1.83-0.01-3.67-0.01-5.5-0.02c-0.08-0.03-0.11-0.07-0.09-0.11c0.02-0.05,0.04-0.07,0.06-0.07
		c1.86,0.01,3.72,0.02,5.58,0.02C313.55,297.65,313.53,297.71,313.44,297.75z"/>
	<path class="st10" d="M461.16,288.6c1.76-0.31,3.52-0.32,5.28,0.01C464.68,288.6,462.92,288.6,461.16,288.6z"/>
	<path class="st11" d="M285.2,227.04c-0.01-1.52-0.01-3.04-0.02-4.56C285.54,224,285.51,225.52,285.2,227.04z"/>
	<path class="st8" d="M369.11,267.33c0-1.37,0-2.74,0-4.11C369.45,264.59,369.45,265.96,369.11,267.33z"/>
	<path class="st12" d="M435.05,211.67c0.36,1.22,0.36,2.43,0,3.65C435.05,214.1,435.05,212.89,435.05,211.67z"/>
	<path class="st13" d="M355.21,218.18c0-1.13,0.01-2.25,0.01-3.38C355.53,215.93,355.55,217.06,355.21,218.18z"/>
	<path class="st14" d="M277.67,250.34c-1.02-0.02-2.04-0.03-3.06-0.05c-0.08-0.03-0.11-0.07-0.09-0.12
		c0.02-0.05,0.04-0.07,0.06-0.07C275.62,250.17,276.68,249.76,277.67,250.34z"/>
	<path class="st15" d="M413.17,263.71c0,1.05,0,2.09,0,3.14C412.84,265.8,412.84,264.75,413.17,263.71z"/>
	<path class="st16" d="M367.64,306.84c-1.03,0-2.06,0-3.09,0c-0.08-0.03-0.12-0.07-0.1-0.11c0.02-0.05,0.04-0.08,0.07-0.08
		c1.05,0,2.1,0,3.15,0c0.07,0.05,0.09,0.1,0.06,0.14C367.69,306.82,367.66,306.84,367.64,306.84z"/>
	<path class="st16" d="M296.9,290.36c0.96,0,1.92,0,2.88,0C298.82,290.69,297.86,290.69,296.9,290.36z"/>
	<path class="st17" d="M291.6,237.61c0,0.95,0,1.91,0.01,2.86c-0.43-0.95-0.14-1.94-0.18-2.91
		C291.5,237.48,291.56,237.5,291.6,237.61z"/>
	<path class="st18" d="M251.13,241.42c0.08,0,0.15,0.02,0.22,0.05c-0.33,0.63-0.65,1.26-0.98,1.89c0,0-0.11-0.02-0.11-0.02
		s-0.11,0.01-0.11,0.01C250.33,242.63,250.62,241.97,251.13,241.42z"/>
	<path class="st12" d="M291.59,243.33c0,0.95,0,1.91-0.01,2.86c-0.03,0.12-0.09,0.13-0.17,0.04
		C291.47,245.27,291.18,244.28,291.59,243.33z"/>
	<path class="st3" d="M366.18,225.63c-0.05,0.8,0.23,1.62-0.18,2.39c0-0.81,0-1.62,0-2.43C366.09,225.5,366.14,225.51,366.18,225.63
		z"/>
	<path class="st19" d="M468.82,288.62c0.02-0.79,0.03-1.59,0.05-2.38c0.09-0.09,0.14-0.08,0.16,0.05
		C468.99,287.07,469.38,287.88,468.82,288.62z"/>
	<path class="st20" d="M451.55,288.44c0.81,0.02,1.64-0.23,2.43,0.16c-0.8,0-1.59,0.01-2.39,0.01c-0.08-0.02-0.11-0.06-0.09-0.1
		C451.51,288.47,451.53,288.44,451.55,288.44z"/>
	<path class="st21" d="M412.74,231.38c0.01-0.74,0.02-1.47,0.02-2.21c0.08-0.07,0.14-0.06,0.19,0.04
		C412.88,229.93,413.19,230.69,412.74,231.38z"/>
	<path class="st22" d="M364.51,306.65c0.01,0.06,0.02,0.13,0.03,0.19c-0.72,0-1.44,0.01-2.16,0.01c-0.08-0.03-0.11-0.07-0.1-0.11
		c0.02-0.05,0.04-0.08,0.06-0.08C363.07,306.65,363.79,306.65,364.51,306.65z"/>
	<path class="st23" d="M313.44,297.75c0.02-0.06,0.03-0.12,0.05-0.18c0.63,0,1.25-0.01,1.88-0.02
		C314.76,297.95,314.09,297.71,313.44,297.75z"/>
	<path class="st3" d="M291.41,246.24c0.06-0.02,0.11-0.03,0.17-0.04c0.01,0.65,0.01,1.31,0.02,1.96
		C291.18,247.55,291.47,246.88,291.41,246.24z"/>
	<path class="st24" d="M360.69,409.44c0.64-0.3,1.28-0.35,1.93-0.02C361.97,409.42,361.33,409.43,360.69,409.44z"/>
	<path class="st25" d="M238.92,283.6c0.34,0.57,0.28,1.13-0.02,1.7C238.91,284.73,238.91,284.17,238.92,283.6z"/>
	<path class="st26" d="M345.1,409.24c0.57,0.01,1.17-0.18,1.7,0.2C346.23,409.43,345.63,409.62,345.1,409.24z"/>
	<path class="st27" d="M394.94,256.29c-0.38-0.54-0.13-1.14-0.18-1.71C395.19,255.11,394.93,255.72,394.94,256.29z"/>
	<path class="st28" d="M377.24,180.5c-0.69,0.06-0.39,0.64-0.52,1C376.38,180.47,376.44,180.34,377.24,180.5z"/>
	<path class="st25" d="M238.9,302.54c0.3,0.56,0.35,1.13,0.02,1.69C238.91,303.67,238.91,303.11,238.9,302.54z"/>
	<path class="st29" d="M451.55,288.44c0.01,0.06,0.03,0.11,0.04,0.17c-0.56,0-1.11,0.01-1.67,0.01c-0.08-0.02-0.11-0.06-0.09-0.1
		c0.01-0.05,0.03-0.07,0.05-0.07C450.43,288.45,450.99,288.45,451.55,288.44z"/>
	<path class="st30" d="M291.6,237.61c-0.06-0.01-0.12-0.03-0.18-0.04c0-0.56,0-1.11,0-1.67c0.09-0.09,0.14-0.08,0.17,0.05
		C291.59,236.5,291.59,237.06,291.6,237.61z"/>
	<path class="st31" d="M365.76,220.8c0.25,0.56,0.4,1.13,0.02,1.7C365.77,221.93,365.76,221.37,365.76,220.8z"/>
	<path class="st8" d="M405.55,198.74c0-0.55,0-1.11,0-1.66c0.05-0.1,0.11-0.11,0.18-0.03c0,0.57,0,1.14,0.01,1.71
		C405.66,198.86,405.6,198.85,405.55,198.74z"/>
	<path class="st31" d="M291.18,231.35c0.24,0.56,0.4,1.13,0.02,1.7C291.19,232.48,291.19,231.91,291.18,231.35z"/>
	<path class="st21" d="M405.73,197.06c-0.06,0.01-0.12,0.02-0.18,0.03c0.06-0.56-0.18-1.16,0.18-1.69
		C405.73,195.95,405.73,196.51,405.73,197.06z"/>
	<path class="st32" d="M405.55,198.74c0.06,0.01,0.12,0.02,0.19,0.03c0,0.55,0,1.11,0,1.66
		C405.35,199.91,405.6,199.31,405.55,198.74z"/>
	<path class="st33" d="M357.81,409.69c0.01-0.06,0.02-0.12,0.03-0.18c0.55,0,1.11,0,1.66,0
		C358.97,409.88,358.37,409.63,357.81,409.69z"/>
	<path class="st27" d="M394.76,261.11c0.05-0.57-0.2-1.17,0.18-1.71C394.93,259.97,395.19,260.58,394.76,261.11z"/>
	<path class="st34" d="M577.74,385.99c0-0.57-0.01-1.14-0.01-1.72c0.42,0.52,0.15,1.11,0.18,1.67
		C577.88,386.06,577.83,386.07,577.74,385.99z"/>
	<path class="st35" d="M350.61,409.49c0.01,0.06,0.02,0.13,0.03,0.19c-0.57-0.04-1.17,0.21-1.7-0.19
		C349.5,409.49,350.05,409.49,350.61,409.49z"/>
	<path class="st26" d="M353.98,306.13c-0.49-0.01-0.97-0.02-1.46-0.02C353.02,305.77,353.5,305.82,353.98,306.13z"/>
	<path class="st36" d="M362.36,306.66c0.01,0.06,0.02,0.13,0.03,0.19c-0.49-0.03-1.01,0.19-1.46-0.19
		C361.41,306.66,361.88,306.66,362.36,306.66z"/>
	<path class="st37" d="M307.92,297.55c0.01,0.06,0.02,0.12,0.03,0.19c-0.49,0-0.98,0-1.47-0.01
		C306.92,297.35,307.43,297.57,307.92,297.55z"/>
	<path class="st32" d="M238.86,288.15c-0.04,0.49,0.18,1.01-0.18,1.45c0-0.47-0.01-0.95-0.01-1.42
		C238.71,288.07,238.78,288.06,238.86,288.15z"/>
	<path class="st15" d="M469.03,286.29c-0.05-0.02-0.11-0.03-0.16-0.05c0.01-0.48,0.01-0.96,0.02-1.44
		C469.24,285.27,469.05,285.78,469.03,286.29z"/>
	<path class="st38" d="M391.83,328.93c-0.34-0.46-0.19-0.98-0.17-1.48C391.98,327.91,391.87,328.42,391.83,328.93z"/>
	<path class="st39" d="M305.07,297.49c-0.49,0-0.97-0.01-1.46-0.01C304.1,297.14,304.58,297.2,305.07,297.49z"/>
	<path class="st40" d="M263.3,242.42c0.5,0.01,1.02-0.2,1.47,0.17c-0.48,0-0.95,0-1.43,0c-0.07-0.02-0.11-0.05-0.09-0.1
		C263.27,242.44,263.28,242.42,263.3,242.42z"/>
	<path class="st3" d="M263.3,242.42c0.01,0.06,0.03,0.11,0.04,0.17c-0.49,0-0.98,0-1.47-0.01
		C262.31,242.19,262.82,242.44,263.3,242.42z"/>
	<path class="st15" d="M449.87,288.45c0.01,0.06,0.02,0.12,0.04,0.17c-0.49-0.02-1.01,0.19-1.46-0.18
		C448.93,288.44,449.4,288.45,449.87,288.45z"/>
	<path class="st3" d="M311.99,232.76c0.02-0.48,0.03-0.95,0.05-1.43C312.35,231.82,312.42,232.3,311.99,232.76z"/>
	<path class="st40" d="M366.18,225.63c-0.06-0.01-0.12-0.03-0.18-0.04c0-0.48,0-0.95,0-1.43
		C366.37,224.61,366.16,225.13,366.18,225.63z"/>
	<path class="st41" d="M285.14,220.35c-0.36-0.45-0.2-0.97-0.2-1.46C285.29,219.33,285.13,219.85,285.14,220.35z"/>
	<path class="st42" d="M370.75,408.49c0.22-0.14,0.45-0.28,0.67-0.43c0.19,0.03,0.59-0.04,0.22,0.32
		C371.4,408.61,371.05,408.51,370.75,408.49z"/>
	<path class="st43" d="M374.39,190.37c0-0.49,0-0.97,0.01-1.46C374.72,189.41,374.7,189.89,374.39,190.37z"/>
	<path class="st44" d="M376.78,183.16c0.36,0.45,0.2,0.96,0.2,1.46C376.62,184.17,376.79,183.65,376.78,183.16z"/>
	<path class="st45" d="M367.64,306.84c0.01-0.06,0.02-0.13,0.02-0.19c0.48,0.02,1-0.19,1.43,0.2
		C368.61,306.85,368.12,306.84,367.64,306.84z"/>
	<path class="st46" d="M300.97,290.3c0.46-0.34,0.97-0.2,1.48-0.18C301.99,290.44,301.47,290.33,300.97,290.3z"/>
	<path class="st32" d="M238.68,298.23c0.36,0.45,0.14,0.97,0.18,1.45c-0.08,0.1-0.14,0.09-0.19-0.03
		C238.67,299.18,238.67,298.71,238.68,298.23z"/>
	<path class="st47" d="M274.59,250.09c0.01,0.06,0.02,0.13,0.03,0.19c-0.41-0.03-0.85,0.15-1.21-0.2
		C273.8,250.09,274.19,250.09,274.59,250.09z"/>
	<path class="st48" d="M239.34,281.2c0,0.42,0.13,0.86-0.19,1.22C239.12,282,239,281.57,239.34,281.2z"/>
	<path class="st49" d="M405.99,203.32c-0.32-0.37-0.2-0.8-0.19-1.22C406.13,202.46,406.01,202.9,405.99,203.32z"/>
	<path class="st20" d="M468.81,283.62c-0.34-0.37-0.17-0.81-0.19-1.23C469.02,282.75,468.79,283.2,468.81,283.62z"/>
	<path class="st50" d="M352.29,288.37c0.4-0.28,0.8-0.31,1.21-0.01C353.1,288.36,352.7,288.36,352.29,288.37z"/>
	<path class="st26" d="M284.94,230.16c-0.01-0.42-0.14-0.86,0.2-1.22C285.14,229.36,285.27,229.8,284.94,230.16z"/>
	<path class="st51" d="M348.93,288.44c0.4,0,0.81,0,1.21,0C349.74,288.75,349.34,288.75,348.93,288.44z"/>
	<path class="st52" d="M405.81,194.21c-0.04-0.42-0.15-0.86,0.18-1.22C406,193.4,406.12,193.84,405.81,194.21z"/>
	<path class="st53" d="M412.95,229.21c-0.06-0.01-0.12-0.03-0.19-0.04c0-0.39-0.01-0.78-0.01-1.18
		C413.08,228.36,412.96,228.79,412.95,229.21z"/>
	<path class="st54" d="M291.59,235.95c-0.06-0.02-0.11-0.03-0.17-0.05c0-0.4,0-0.79,0-1.19
		C291.76,235.08,291.61,235.53,291.59,235.95z"/>
	<path class="st55" d="M238.67,299.66c0.06,0.01,0.13,0.02,0.19,0.03c0,0.4,0,0.8-0.01,1.2
		C238.49,300.52,238.66,300.08,238.67,299.66z"/>
	<path class="st49" d="M366.68,408.96c0.37-0.32,0.81-0.22,1.23-0.18C367.54,409.07,367.1,408.99,366.68,408.96z"/>
	<path class="st39" d="M342.46,409.01c0.42-0.01,0.86-0.14,1.22,0.2C343.26,409.2,342.82,409.34,342.46,409.01z"/>
	<path class="st56" d="M364.28,409.19c0.4-0.27,0.81-0.33,1.22-0.01C365.09,409.18,364.69,409.18,364.28,409.19z"/>
	<path class="st57" d="M293.78,290.11c0.42-0.02,0.86-0.14,1.22,0.19C294.58,290.31,294.14,290.44,293.78,290.11z"/>
	<path class="st55" d="M238.86,288.15c-0.06,0.01-0.13,0.02-0.19,0.03c-0.01-0.42-0.17-0.86,0.18-1.23
		C238.85,287.36,238.85,287.76,238.86,288.15z"/>
	<path class="st3" d="M566.23,384.51c0.31,0.41,0.31,0.82,0,1.23C566.23,385.34,566.23,384.93,566.23,384.51z"/>
	<path class="st58" d="M577.74,385.99c0.06-0.01,0.11-0.03,0.17-0.04c0.02,0.42,0.16,0.86-0.18,1.23
		C577.74,386.78,577.74,386.38,577.74,385.99z"/>
</g>
<g>
	<path class="st59" d="M424.22,342.14v12.24h-25.41c-0.52,0-1-0.1-1.44-0.29c-0.44-0.2-0.83-0.45-1.15-0.78
		c-0.33-0.33-0.58-0.71-0.78-1.15c-0.19-0.44-0.29-0.92-0.29-1.44v-4.91c0-0.49,0.1-0.97,0.29-1.42c0.19-0.45,0.45-0.84,0.78-1.17
		c0.32-0.33,0.71-0.58,1.15-0.78c0.44-0.19,0.92-0.29,1.44-0.29h9.24l-0.04-10.72h-9.2c-1.01,0-1.88-0.35-2.59-1.05
		c-0.71-0.7-1.07-1.56-1.07-2.57v-4.87c0-0.49,0.1-0.97,0.29-1.42c0.19-0.45,0.45-0.84,0.78-1.17c0.32-0.32,0.71-0.58,1.15-0.78
		c0.44-0.2,0.92-0.29,1.44-0.29h11.11c3.33,0,5.88,0.88,7.66,2.65c1.78,1.77,2.67,4.64,2.67,8.61v11.61H424.22z"/>
	<path class="st59" d="M440.28,342.14h3.98v12.24h-20.38v-12.24h4.17v-19.13c0-0.49,0.1-0.96,0.29-1.4c0.19-0.44,0.46-0.82,0.8-1.15
		c0.34-0.33,0.73-0.58,1.17-0.78c0.44-0.19,0.92-0.29,1.44-0.29h4.87c0.49,0,0.97,0.1,1.42,0.29c0.45,0.2,0.84,0.46,1.17,0.78
		c0.32,0.33,0.58,0.71,0.78,1.15c0.2,0.44,0.29,0.91,0.29,1.4V342.14z M440.08,308.66c0,0.83-0.16,1.62-0.47,2.36
		s-0.74,1.39-1.29,1.95c-0.55,0.56-1.19,1-1.93,1.33c-0.74,0.33-1.54,0.49-2.4,0.49c-0.83,0-1.62-0.16-2.36-0.49
		c-0.74-0.32-1.38-0.77-1.93-1.33c-0.54-0.56-0.98-1.21-1.31-1.95c-0.32-0.74-0.49-1.53-0.49-2.36c0-0.83,0.16-1.62,0.49-2.36
		c0.33-0.74,0.76-1.39,1.31-1.95c0.55-0.56,1.19-1,1.93-1.33c0.74-0.32,1.53-0.49,2.36-0.49c0.86,0,1.66,0.16,2.4,0.49
		c0.74,0.33,1.38,0.77,1.93,1.33c0.55,0.56,0.97,1.21,1.29,1.95S440.08,307.83,440.08,308.66z"/>
	<path class="st59" d="M447.76,342.14v-30.63c0-0.49,0.1-0.97,0.29-1.42c0.19-0.45,0.45-0.84,0.78-1.17
		c0.32-0.32,0.71-0.58,1.15-0.78c0.44-0.2,0.92-0.29,1.44-0.29h4.87c0.49,0,0.97,0.1,1.42,0.29c0.45,0.19,0.84,0.46,1.17,0.78
		c0.32,0.33,0.58,0.71,0.78,1.17c0.2,0.46,0.29,0.93,0.29,1.42v31.61c0,3.97-0.9,6.85-2.69,8.61c-1.79,1.77-4.35,2.65-7.68,2.65
		h-5.53v-12.24H447.76z"/>
	<path class="st59" d="M469.82,371.6c-0.99-0.1-1.84-0.49-2.57-1.15c-0.73-0.66-1.09-1.5-1.09-2.51v-4.91c0-0.49,0.1-0.97,0.29-1.42
		c0.2-0.46,0.46-0.84,0.8-1.17c0.34-0.33,0.73-0.58,1.17-0.78c0.44-0.19,0.91-0.29,1.4-0.29c0.78,0,1.61,0.02,2.49,0.06
		c0.88,0.04,1.77,0.04,2.65,0.02c0.88-0.03,1.73-0.11,2.55-0.25c0.82-0.14,1.57-0.4,2.24-0.78c0.67-0.38,1.25-0.89,1.73-1.54
		c0.48-0.65,0.81-1.48,0.99-2.49h-6.94c-3.33,0-5.88-0.88-7.66-2.65c-1.78-1.77-2.67-4.64-2.67-8.61v-12.59
		c0-3.98,0.89-6.85,2.67-8.61c1.78-1.77,4.33-2.65,7.66-2.65h8.69c1.66,0,3.13,0.21,4.4,0.64c1.27,0.43,2.35,1.1,3.23,2.01
		c0.88,0.91,1.54,2.08,1.99,3.51c0.44,1.43,0.66,3.13,0.66,5.11l-0.04,11.61h4.05v12.24h-4.21c-0.36,3.09-1.2,5.79-2.49,8.11
		c-1.3,2.31-3.01,4.2-5.14,5.67c-2.13,1.47-4.62,2.49-7.46,3.08S473.25,371.94,469.82,371.6z M477.42,342.14h4.95v-10.72h-4.95
		V342.14z"/>
	<path class="st59" d="M498.15,342.14h6.27v-6.98c0-0.49,0.1-0.96,0.29-1.38c0.19-0.43,0.45-0.8,0.78-1.13
		c0.32-0.33,0.71-0.58,1.15-0.78c0.44-0.19,0.92-0.29,1.44-0.29h4.87c0.49,0,0.96,0.1,1.4,0.29c0.44,0.2,0.83,0.46,1.17,0.78
		s0.6,0.7,0.8,1.13c0.2,0.43,0.29,0.89,0.29,1.38v7.95c0,3.97-0.89,6.85-2.67,8.61c-1.78,1.77-4.35,2.65-7.7,2.65h-8.11V342.14z
		 M503.69,320.2v-4.33c0-2.23,0.49-3.84,1.48-4.83c0.99-0.99,2.4-1.48,4.25-1.48h5.18c0.52,0,0.97,0.2,1.36,0.58
		s0.58,0.88,0.58,1.48v2.77c0,0.55-0.2,1.03-0.58,1.44c-0.39,0.42-0.84,0.62-1.36,0.62h-4.09v3.74h4.09c0.52,0,0.97,0.2,1.36,0.6
		c0.39,0.4,0.58,0.89,0.58,1.46v2.73c0,0.6-0.2,1.09-0.58,1.48s-0.84,0.58-1.36,0.58h-12.12c-0.6,0-1.09-0.2-1.48-0.58
		s-0.58-0.88-0.58-1.48v-2.73c0-0.57,0.2-1.06,0.58-1.46c0.39-0.4,0.88-0.6,1.48-0.6H503.69z"/>
	<path class="st59" d="M533.66,342.14h3.7v12.24h-5.57c-3.33,0-5.88-0.88-7.66-2.65c-1.78-1.77-2.67-4.64-2.67-8.61v-31.61
		c0-0.49,0.1-0.97,0.29-1.42c0.2-0.45,0.46-0.84,0.8-1.17c0.34-0.32,0.73-0.58,1.17-0.78c0.44-0.2,0.91-0.29,1.4-0.29h4.87
		c1.04,0,1.91,0.36,2.61,1.07c0.7,0.71,1.05,1.58,1.05,2.59V342.14z"/>
	<path class="st59" d="M536.97,342.14h4.09v-19.13c0-0.49,0.1-0.96,0.29-1.4c0.19-0.44,0.45-0.82,0.78-1.15
		c0.32-0.33,0.71-0.58,1.15-0.78c0.44-0.19,0.92-0.29,1.44-0.29h4.83c0.49,0,0.96,0.1,1.4,0.29c0.44,0.2,0.83,0.46,1.17,0.78
		s0.6,0.71,0.8,1.15c0.2,0.44,0.29,0.91,0.29,1.4v20.11c0,3.97-0.89,6.85-2.67,8.61c-1.78,1.77-4.33,2.65-7.66,2.65h-5.92V342.14z
		 M552.4,365.13c0,0.86-0.16,1.66-0.47,2.4c-0.31,0.74-0.74,1.39-1.29,1.95c-0.55,0.56-1.19,1-1.93,1.33
		c-0.74,0.32-1.54,0.49-2.4,0.49c-0.83,0-1.62-0.16-2.36-0.49c-0.74-0.33-1.38-0.77-1.93-1.33c-0.54-0.56-0.98-1.21-1.31-1.95
		s-0.49-1.54-0.49-2.4c0-0.83,0.16-1.62,0.49-2.36s0.76-1.38,1.31-1.93c0.55-0.55,1.19-0.97,1.93-1.29
		c0.74-0.31,1.53-0.47,2.36-0.47c0.86,0,1.66,0.16,2.4,0.47c0.74,0.31,1.38,0.74,1.93,1.29c0.54,0.54,0.97,1.19,1.29,1.93
		C552.25,363.52,552.4,364.3,552.4,365.13z"/>
</g>
<g>
	<path class="st60" d="M421.17,382.04c-0.74,0.59-1.59,0.97-2.57,1.12l-0.45-0.43c1.04-0.22,1.89-0.58,2.55-1.1
		c0.63-0.49,0.95-1.01,0.95-1.56c0-1.11-0.85-2.12-2.55-3.03c-1.67-0.88-3.48-1.32-5.43-1.32c-1.7,0-3.76,0.52-6.19,1.56l0.52,0.56
		l0.56,0.61c0.45,0.49,0.81,0.93,1.08,1.32c0.79,1.12,1.19,2.26,1.19,3.4c0,1.51-0.4,2.79-1.21,3.83c-0.78,1.02-2.19,2.13-4.24,3.31
		c1.43,1.73,2.14,4,2.14,6.81c0.55-0.17,1.31-0.56,2.29-1.17c1.04-0.63,1.87-1.23,2.49-1.79l0.35,0.37
		c-1.69,1.44-3.49,2.56-5.41,3.35c-0.79,2.06-2.11,3.77-3.96,5.13c-2.15,1.59-4.64,2.36-7.46,2.31c-2-0.04-3.01-0.75-3.01-2.12
		c0-1.86,1.33-3.23,4-4.11c0.97-0.32,2.06-0.55,3.29-0.71c0.95-0.12,1.84-0.17,2.66-0.17c0.63-0.59,1.07-1.59,1.3-2.99
		c0.25-1.44,0.22-2.99-0.09-4.65c-0.3,0.06-0.69,0.09-1.17,0.09c-0.35,0-0.71-0.12-1.1-0.35c-0.43-0.27-0.65-0.58-0.65-0.93
		c0-0.32,0.17-0.57,0.52-0.76c0.27-0.14,0.57-0.22,0.89-0.22c0.71,0,1.41,0.32,2.12,0.97c2.37-2.06,3.55-4.13,3.55-6.21
		c0-1.69-0.22-3.01-0.65-3.96c-0.16-0.36-0.35-0.66-0.58-0.91c-0.16-0.19-0.34-0.34-0.54-0.45c-1.18,0.59-2.83,2.37-4.95,5.32
		c-0.71,1.02-1.42,2.83-2.14,5.43c-0.38,1.3-0.69,2.28-0.93,2.94c-0.39,1.08-0.84,2.01-1.36,2.79c-2.44,3.78-4.92,6.47-7.44,8.09
		c-3.03,1.93-6.82,2.9-11.38,2.9c-3.84,0-6.97-1.12-9.41-3.35c-2.51-2.29-3.76-5.32-3.76-9.08c0-4.33,1.57-8.1,4.71-11.31
		c3.13-3.21,6.79-4.82,10.97-4.82c0.85,0,1.83,0.14,2.94,0.43c0.89,0.23,1.75,0.52,2.55,0.87l1.06-0.65l1.04-0.63
		c0.82-0.48,1.57-0.85,2.25-1.12c1.89-0.76,4.28-1.15,7.18-1.15c2.15,0,4.06,0.3,5.73,0.89c0.53,0.19,1.13,0.44,1.8,0.76l0.76,0.35
		l0.67,0.3l0.58-0.22l0.63-0.26c0.55-0.22,1.04-0.39,1.49-0.52c1.33-0.39,2.77-0.58,4.33-0.58c2.18,0,4.16,0.5,5.95,1.49
		c1.8,1.01,2.7,2.13,2.7,3.37C422.32,380.77,421.93,381.42,421.17,382.04z M397.68,374.93c-2.54,0-4.67,0.31-6.4,0.93
		c-1.3,0.45-2.86,1.29-4.67,2.53c4.22,2.59,6.34,5.99,6.34,10.19c0,0.06-0.07,0.58-0.22,1.56l0.48-0.76l0.43-0.71
		c0.29-0.53,0.44-1.08,0.45-1.64c0.01-0.5-0.09-1.05-0.32-1.64l-0.3-0.69l-0.15-0.32l-0.15-0.3l0.5-0.13l0.3,0.54
		c0.14,0.23,0.25,0.44,0.33,0.63c0.23,0.53,0.36,1.16,0.39,1.88c0,1.43-0.8,2.93-2.4,4.52c-0.61,1.83-1.66,3.33-3.16,4.5
		c-1.54,1.2-3.25,1.79-5.13,1.79v-0.63c0.38,0.07,0.87,0.04,1.49-0.11c0.72-0.16,1.42-0.42,2.1-0.78c1.8-0.94,3-2.29,3.59-4.07
		c-1.3,0.45-2.35,0.67-3.16,0.67c-1.93,0-3.48-0.66-4.65-1.97c-1.14-1.28-1.71-2.95-1.71-5c0-1.83,0.55-3.5,1.67-5.02
		c0.38-0.52,0.82-1.02,1.34-1.51l0.3-0.28l0.28-0.24c0.23-0.2,0.38-0.33,0.43-0.39c-0.5-0.27-1.25-0.55-2.23-0.82
		c-1.1-0.3-2.03-0.46-2.79-0.46c-3.85,0-7.33,1.55-10.43,4.65c-3.17,3.17-4.76,6.85-4.76,11.03c0,3.43,1.14,6.25,3.42,8.46
		c2.34,2.28,5.42,3.42,9.26,3.42c1.79,0,3.68-0.5,5.67-1.51c1.99-1,3.78-2.32,5.36-3.98c1.48-1.57,2.76-3.51,3.83-5.82
		c0.36-0.75,0.71-1.58,1.04-2.49l0.19-0.52l0.15-0.45c0.13-0.35,0.22-0.59,0.28-0.74c1.07-2.83,2.69-5.36,4.87-7.61
		c1.99-2.05,4.07-3.5,6.25-4.35C403.57,375.71,400.87,374.93,397.68,374.93z M391.15,383.51c-1.05-1.96-2.72-3.57-5-4.82
		c-1.37,1.33-2.3,2.36-2.79,3.09c-0.82,1.25-1.23,2.65-1.23,4.17c0,1.92,0.55,3.46,1.64,4.63c1.07,1.14,2.48,1.71,4.24,1.71
		c1.41,0,2.65-0.48,3.72-1.45c0.45-1.02,0.67-1.78,0.67-2.27C392.4,386.74,391.98,385.06,391.15,383.51z M396.66,399.69
		c-2.22,0.76-3.33,1.93-3.33,3.5c0,0.88,0.62,1.32,1.86,1.32c1.7,0.04,3.41-0.84,5.13-2.66c0.29-0.32,0.58-0.66,0.89-1.04
		c0.23-0.27,0.46-0.58,0.69-0.91l0.28-0.39l0.11-0.17l0.11-0.15c0.13-0.19,0.21-0.3,0.24-0.35
		C400.35,398.82,398.36,399.1,396.66,399.69z M402.46,388.99c-0.35,0-0.52,0.13-0.52,0.39c0,0.16,0.1,0.3,0.3,0.43
		c0.19,0.13,0.38,0.2,0.56,0.2c0.33,0,0.68-0.07,1.04-0.2C403.4,389.26,402.94,388.99,402.46,388.99z"/>
	<path class="st60" d="M419.92,404.84c-1.44,0-2.57-0.87-3.38-2.62c-1.3,1.74-2.7,2.62-4.2,2.62c-2.02,0-3.03-1.46-3.03-4.39
		c0-2.18,0.93-4.27,2.79-6.27c2.03-2.19,4.41-3.29,7.14-3.29c1.01,0,1.77,0.35,2.27,1.06c0.32-0.45,0.63-0.67,0.93-0.67
		c0.17,0,0.48,0.04,0.93,0.13l0.48,0.09c0.17,0.03,0.32,0.04,0.45,0.04c0.12,0,0.34-0.17,0.67-0.52l0.41-0.41
		c0.14-0.13,0.27-0.22,0.37-0.26l-5.8,10.9c-0.5,0.92-0.76,1.6-0.76,2.03c0,0.59,0.32,0.89,0.97,0.89c0.78,0,2.34-1.08,4.69-3.24
		c2.18-2,4.29-4.25,6.34-6.73l0.37,0.33C425.95,401.4,422.06,404.84,419.92,404.84z M420.61,392.04c-0.17-0.25-0.4-0.37-0.69-0.37
		c-1.73,0-3.54,1.53-5.43,4.59c-1.7,2.75-2.55,4.9-2.55,6.45c0,0.98,0.29,1.47,0.89,1.47c0.72,0,1.42-0.34,2.1-1.02
		c0.26-0.26,0.53-0.58,0.8-0.95c0.19-0.26,0.39-0.58,0.61-0.95c0.55-0.94,1.04-1.78,1.47-2.53c0.58-0.99,1.07-1.87,1.47-2.62
		c1.05-1.93,1.58-3.05,1.58-3.35C420.84,392.48,420.77,392.24,420.61,392.04z"/>
	<path class="st60" d="M442.45,398.59c-0.94,0.36-1.6,0.58-1.99,0.67c-0.3,0.49-0.71,1.03-1.23,1.62c-0.62,0.68-1.28,1.28-1.99,1.82
		c-1.86,1.43-3.71,2.14-5.56,2.14c-1,0-1.82-0.44-2.49-1.32c-0.61-0.81-0.91-1.75-0.91-2.81c0-2.49,1.06-4.77,3.18-6.81
		c2.09-2,4.38-3.01,6.86-3.01c1.02,0,1.88,0.39,2.57,1.17c0.68,0.79,1.02,1.79,1.02,2.98c0,0.65-0.14,1.33-0.41,2.05
		c-0.09,0.22-0.2,0.49-0.35,0.82l-0.17,0.35l-0.13,0.33c0.3-0.06,0.75-0.22,1.34-0.5c1.05-0.48,2.1-1.12,3.14-1.95
		c0.4-0.3,0.81-0.64,1.23-1.02c0.29-0.26,0.61-0.57,0.97-0.93l0.37,0.33C446.84,395.81,445.02,397.16,442.45,398.59z M438.19,391.41
		c-1.25,0-2.81,1.51-4.67,4.52c-1.79,2.91-2.68,5.18-2.68,6.81c0,1.01,0.28,1.51,0.84,1.51c1.53,0,3.36-1.79,5.49-5.36
		c-1.62-0.52-2.42-1.24-2.42-2.16c0-0.95,0.45-1.43,1.36-1.43c0.62,0,0.93,0.31,0.93,0.93c0,0.53-0.4,0.83-1.19,0.89
		c0.1,0.32,0.35,0.61,0.74,0.89c0.35,0.25,0.66,0.4,0.95,0.45c1.14-2.45,1.71-4.43,1.71-5.95
		C439.25,391.78,438.9,391.41,438.19,391.41z"/>
	<path class="st60" d="M488.29,402.85c-3,2.41-6.47,3.61-10.43,3.61c-3.26,0-7.3-1.24-12.11-3.72c-2.75,1.69-5.05,2.53-6.9,2.53
		c-1.73,0-3.17-0.33-4.33-1c-1.28-0.72-1.92-1.7-1.92-2.94c0-0.97,0.53-1.8,1.6-2.49c1.04-0.68,2.26-1.02,3.68-1.02
		c1.77,0,4.21,0.82,7.31,2.44c1.04-1.72,1.8-3.15,2.29-4.3c0.71-1.59,1.42-3.7,2.14-6.34c-1.77,0.71-3.24,1.06-4.39,1.06
		c-2.58,0-4.74-0.97-6.49-2.92c-1.7-1.9-2.55-4.2-2.55-6.9c0-3.33,1.21-6.1,3.63-8.31c2.42-2.21,5.45-3.31,9.08-3.31
		c1.63,0,2.91,0.27,3.85,0.8l-0.93-0.11l-0.99-0.11c-0.78-0.09-1.42-0.13-1.93-0.13c-3.53,0-6.47,1.1-8.82,3.29
		c-2.29,2.13-3.44,4.76-3.44,7.87c0,2.51,0.79,4.68,2.38,6.51c1.66,1.92,3.73,2.88,6.21,2.88c0.63,0,1.43-0.14,2.38-0.43
		c0.89-0.27,1.62-0.58,2.19-0.91c1.28-5.29,3.07-9.45,5.36-12.48c1.07-1.41,2.25-2.54,3.55-3.37c1.18-0.76,2.21-1.15,3.09-1.15
		c2.34,0,3.5,1.03,3.5,3.09c0,2.37-0.88,4.67-2.64,6.92c-1.99,2.55-4.8,4.59-8.44,6.12c-0.52,2.94-1.14,5.2-1.86,6.77
		c-0.71,1.53-2.13,3.7-4.26,6.51c3.98,1.38,7.66,2.08,11.03,2.08c4.11,0,7.3-0.81,9.58-2.42c2.21-1.56,3.31-3.7,3.31-6.42
		c0-2.05-1.14-3.91-3.42-5.58l0.28-0.5c2.57,1.5,3.85,3.53,3.85,6.08C492.74,397.68,491.26,400.44,488.29,402.85z M463.95,401.42
		c-0.25-0.14-0.49-0.29-0.74-0.43c-0.69-0.39-1.36-0.74-1.99-1.06c-1.88-0.92-3.3-1.38-4.28-1.38c-0.94,0-1.79,0.3-2.57,0.89
		c-0.79,0.58-1.19,1.21-1.19,1.9c0,0.88,0.45,1.64,1.36,2.29c0.94,0.65,2.06,0.97,3.37,0.97c2.31,0,4.48-0.96,6.51-2.88
		C464.3,401.64,464.14,401.54,463.95,401.42z M481.8,372.37c-1.83,0-3.55,1.54-5.17,4.61c-1.63,3.14-2.44,6.58-2.44,10.32
		c2.44-0.94,4.79-2.7,7.05-5.28c2.32-2.64,3.48-4.98,3.48-7.01C484.72,373.25,483.74,372.37,481.8,372.37z"/>
	<path class="st60" d="M503.99,404.84c-1.44,0-2.57-0.87-3.38-2.62c-1.3,1.74-2.7,2.62-4.2,2.62c-2.02,0-3.03-1.46-3.03-4.39
		c0-2.18,0.93-4.27,2.79-6.27c2.03-2.19,4.41-3.29,7.14-3.29c1.01,0,1.77,0.35,2.27,1.06c0.32-0.45,0.63-0.67,0.93-0.67
		c0.17,0,0.48,0.04,0.93,0.13l0.48,0.09c0.17,0.03,0.32,0.04,0.45,0.04c0.12,0,0.34-0.17,0.67-0.52l0.41-0.41
		c0.14-0.13,0.27-0.22,0.37-0.26l-5.8,10.9c-0.5,0.92-0.76,1.6-0.76,2.03c0,0.59,0.32,0.89,0.97,0.89c0.78,0,2.34-1.08,4.69-3.24
		c2.18-2,4.29-4.25,6.34-6.73l0.37,0.33C510.02,401.4,506.14,404.84,503.99,404.84z M504.68,392.04c-0.17-0.25-0.4-0.37-0.69-0.37
		c-1.73,0-3.54,1.53-5.43,4.59c-1.7,2.75-2.55,4.9-2.55,6.45c0,0.98,0.29,1.47,0.89,1.47c0.72,0,1.42-0.34,2.1-1.02
		c0.26-0.26,0.53-0.58,0.8-0.95c0.19-0.26,0.39-0.58,0.61-0.95c0.55-0.94,1.04-1.78,1.47-2.53c0.58-0.99,1.07-1.87,1.47-2.62
		c1.05-1.93,1.58-3.05,1.58-3.35C504.92,392.48,504.84,392.24,504.68,392.04z"/>
	<path class="st60" d="M525.86,402.18c-1.59,1.8-3.08,2.7-4.48,2.7c-1.54,0-2.39-0.9-2.55-2.7c-0.06-0.79,0.25-1.69,0.93-2.7
		l3.68-5.62c0.4-0.65,0.61-1.1,0.61-1.34c0-0.26-0.22-0.39-0.65-0.39c-0.76,0-1.8,0.6-3.11,1.79c-1.6,1.44-3.14,3.4-4.61,5.86
		c-0.27,0.45-0.59,1.02-0.95,1.73l-0.41,0.78l-0.37,0.69c-0.55,0.97-1.03,1.45-1.45,1.45c-0.2,0-0.49-0.07-0.87-0.2
		c-0.36-0.13-0.62-0.19-0.78-0.19c-0.27,0-0.82,0.44-1.64,1.32l6.83-13.02c0.38-0.71,0.81-1.06,1.32-1.06
		c0.27,0,0.55,0.06,0.84,0.17l0.32,0.13c0.12,0.03,0.25,0.04,0.39,0.04c0.13,0,0.36-0.17,0.69-0.52l0.22-0.22l0.22-0.22
		c0.19-0.14,0.35-0.25,0.5-0.32l-2.25,4.26c2.83-2.48,5.04-3.72,6.64-3.72c1.36,0,2.03,0.68,2.03,2.03c0,0.71-0.28,1.5-0.84,2.38
		l-4.11,6.42c-0.53,0.81-0.8,1.31-0.8,1.51c0,0.53,0.31,0.8,0.93,0.8c0.84,0,2.06-0.89,3.68-2.66l6.51-7.18l0.37,0.33
		C532.04,395.29,529.77,397.84,525.86,402.18z"/>
	<path class="st60" d="M552.66,386.37c-3.01,3.19-5.73,5.36-8.16,6.51c-3.34,6.09-5.02,9.5-5.02,10.23c0,0.76,0.32,1.15,0.95,1.15
		c1.37,0,5.04-3.35,11.01-10.06l0.37,0.33c-3.56,4.01-5.95,6.59-7.16,7.74c-1.89,1.8-3.36,2.7-4.41,2.7c-0.94,0-1.67-0.25-2.21-0.74
		c-0.48-0.43-0.92-1.2-1.34-2.31c-1.07,1.3-1.75,2.06-2.03,2.29c-0.5,0.42-1.17,0.63-1.99,0.63c-0.92,0-1.71-0.43-2.36-1.3
		c-0.61-0.82-0.91-1.75-0.91-2.79c0-2.78,1.08-5.15,3.24-7.09c2.06-1.85,4.46-2.77,7.2-2.77c0.71,0,1.46,0.4,2.25,1.19
		c2.67-4.51,5.19-8.15,7.57-10.92c2.77-3.23,5-4.85,6.71-4.85c0.85,0,1.28,0.51,1.28,1.54
		C557.65,380.01,555.99,382.85,552.66,386.37z M540.74,391.84c-0.3-0.26-0.6-0.39-0.89-0.39c-1.24,0-2.89,1.5-4.95,4.5
		c-2.02,2.94-3.03,5.19-3.03,6.75c0,0.42,0.07,0.77,0.22,1.06c0.19,0.33,0.44,0.5,0.76,0.5c0.76,0,1.54-0.48,2.34-1.45
		c0.27-0.35,0.64-0.86,1.1-1.54l0.58-0.89l0.63-0.91c2.45-3.4,3.68-5.67,3.68-6.81C541.17,392.38,541.03,392.1,540.74,391.84z
		 M554.99,377.2c-0.75,0-2.38,2-4.89,6.01c-0.85,1.36-1.8,2.94-2.86,4.76c-0.36,0.62-0.74,1.3-1.15,2.03
		c-0.13,0.23-0.29,0.51-0.48,0.84l-0.19,0.35l-0.17,0.3c2.93-1.76,5.47-4.12,7.63-7.09c1.93-2.64,2.9-4.71,2.9-6.23
		C555.79,377.52,555.53,377.2,554.99,377.2z"/>
</g>
</svg>
