<?xml version="1.0" encoding="UTF-8"?>
<svg id="Layer_1" data-name="Layer 1" xmlns="http://www.w3.org/2000/svg" viewBox="0 0 230.52 231.61">
  <defs>
    <style>
      .cls-1 {
        fill: #a97c50;
      }

      .cls-2 {
        fill: #c49a6c;
      }

      .cls-3 {
        fill: #006838;
      }
    </style>
  </defs>
  <path class="cls-3" d="m35.68,63.51c-4.41,2-18.64.22-23.09-.31,3.14-6.16,6.82-12,10.97-17.45,5.63,4.28,12.12,17.76,12.12,17.76Z"/>
  <path class="cls-2" d="m41.96,61.78c-3.07-6.41-9.32-13.77-15.27-19.95,5.11-6.13,10.84-11.75,17.09-16.72,7.32,32.76-1.82,36.67-1.82,36.67Z"/>
  <path class="cls-3" d="m120.3,109.58c-46.21,7.04-67.37-39.97-67.37-39.97.93-22.02-3.45-37.31-7.13-46.05,3.45-2.66,7.07-5.09,10.81-7.32,17.65,19.79,16.93,38.37,16.93,38.37-7.77.86-19.85-24.49-19.85-24.49,2.64,27.8,18.71,33.69,18.71,33.69,4.88,7.5,9.56,14.63,21.8,20.82,21.18,10.71,26.1,24.93,26.1,24.93Z"/>
  <path class="cls-2" d="m112.96,54.91c22.18,15.54,17.27,37.69,17.27,37.69,0,0-17.37-17.46-29.92-20.72-14.6-3.8-17.84-14.11-17.84-14.11-2.07-26.17-14.61-38.05-23.04-43.14,4.57-2.55,9.3-4.8,14.23-6.7.04-.05.09-.05.13-.07.48-.19.96-.37,1.45-.55,8.14,24.7,20.17,35.29,37.72,47.6Z"/>
  <path class="cls-3" d="m101.49.88c21.15,27.81,14.06,45.4,14.06,45.4-19.75-6.5-32.08-25.83-38.77-39.54,7.87-2.82,16.14-4.81,24.71-5.86Z"/>
  <path class="cls-2" d="m126.68,169.73v61.37c-3.59.34-7.23.51-10.9.51C51.82,231.61,0,179.76,0,115.8c0-18.15,4.18-35.33,11.61-50.62,16.7,8.02,27.33,6.8,27.33,6.8,9.54,23.49,28.45,39.46,28.45,39.46-14.84,3.2-27.77-4.23-28.43-4.61,12.57,15.83,38.99,12.54,38.99,12.54,4.7,1.75,9.27,3.17,13.63,4.33,20.77,5.53,35.1,24.53,35.1,46.03Z"/>
  <path class="cls-3" d="m153.34,100.08c-4.79-33.08-25.7-50.08-25.7-50.08-.36-29.56-13.06-43.49-21.79-49.58,3.27-.3,6.59-.43,9.93-.43,7.23,0,14.31.66,21.18,1.95-2,12.04-2.95,28.85,10.54,47.78,15.84,22.15,5.84,50.35,5.84,50.35Z"/>
  <path class="cls-2" d="m167.09,62.69c-3.18-12.95-11.81-15.27-18.99-25.33-7.38-9.02-9.36-26.13-9.91-35.17,10.41,2.02,20.31,5.45,29.51,10.11-1.45,10.34.05,19.63,4.84,31.4,6.34,15.54-5.45,18.99-5.45,18.99Z"/>
  <path class="cls-3" d="m192.42,28.99c-1.16,16.97-10.09,21.02-10.09,21.02-7.57-12.84-10.54-26.7-11.68-36.22,7.84,4.25,15.13,9.34,21.77,15.2Z"/>
  <path class="cls-3" d="m230.52,110.52c-3.01,0-3.43-.14-6.18-.07-25.04.57-36.26-2.89-40.58-6.04-4.32-3.16-18.99-16.4,1.73-41.15,9.66-11.52,11.75-22.18,11.25-30.24,21.15,20.68,33.38,45.67,33.79,77.5Z"/>
  <path class="cls-1" d="m12.59,63.21c-.32.66-.66,1.32-.98,1.98"/>
  <path class="cls-1" d="m74.41,9.95c-.27-.7-.52-1.39-.75-2.02.05-.05.09-.05.14-.07.2.7.41,1.41.61,2.09Z"/>
  <path class="cls-1" d="m138.18,2.18c-.41-.09-.82-.18-1.23-.23"/>
  <polygon class="cls-2" points="133.48 179.68 133.48 231.61 160.63 231.61 159.11 225.78 139.04 225.78 139.04 179.68 133.48 179.68"/>
  <polygon class="cls-2" points="170.22 231.61 164.76 231.61 155.39 198.8 148.84 221.71 143.37 221.71 155.39 179.68 170.22 231.61"/>
  <polygon class="cls-3" points="182.76 171.73 177.58 171.73 169.71 144.19 161.84 171.73 156.45 171.73 159.15 163.03 169.71 126.07 182.76 171.73"/>
  <polygon class="cls-2" points="173.88 179.87 188.6 231.42 173.88 231.42 173.88 179.87"/>
  <polygon class="cls-2" points="193.82 179.88 193.82 231.42 179.1 179.88 193.82 179.88"/>
  <path class="cls-2" d="m224.87,205.5c0,14.15-11.48,25.63-25.63,25.63v-51.26c14.15,0,25.63,11.48,25.63,25.63Z"/>
  <path class="cls-3" d="m156.45,137.5c0,6.3-5.11,11.41-11.42,11.41v-22.83c6.31,0,11.42,5.11,11.42,11.42Z"/>
  <path class="cls-3" d="m156.45,160.33c0,6.3-5.11,11.41-11.42,11.41v-22.83c6.31,0,11.42,5.11,11.42,11.42Z"/>
  <rect class="cls-3" x="133.48" y="126.08" width="5.85" height="45.66"/>
  <path class="cls-3" d="m204.58,125.06c-12.89,0-23.34,10.44-23.34,23.33s10.45,23.34,23.34,23.34,23.34-10.45,23.34-23.34-10.45-23.33-23.34-23.33Zm0,41.03c-9.78,0-17.7-7.92-17.7-17.7s7.92-17.69,17.7-17.69,17.7,7.92,17.7,17.69-7.93,17.7-17.7,17.7Z"/>
</svg>